<svg width="157" height="146" viewBox="0 0 157 146" fill="none" xmlns="http://www.w3.org/2000/svg">
<path fill-rule="evenodd" clip-rule="evenodd" d="M78.5006 0C35.1516 0 0 33.5099 0 74.8482C0 107.918 22.4928 135.974 53.6835 145.871C57.6067 146.564 59.0471 144.248 59.0471 142.271C59.0471 140.486 58.9743 134.59 58.9405 128.336C37.1015 132.863 32.4932 119.504 32.4932 119.504C28.9223 110.853 23.7772 108.553 23.7772 108.553C16.6548 103.907 24.314 104.003 24.314 104.003C32.1969 104.531 36.3476 111.716 36.3476 111.716C43.349 123.158 54.7118 119.85 59.1914 117.938C59.8959 113.1 61.9303 109.798 64.1753 107.929C46.7393 106.037 28.4101 99.6187 28.4101 70.9389C28.4101 62.7672 31.4767 56.0903 36.4984 50.8486C35.6833 48.9634 32.9963 41.3507 37.2588 31.0409C37.2588 31.0409 43.8508 29.0293 58.8521 38.7131C65.1139 37.0547 71.8294 36.223 78.5006 36.1945C85.1719 36.223 91.8926 37.0547 98.1661 38.7131C113.149 29.0293 119.732 31.0409 119.732 31.0409C124.005 41.3507 121.317 48.9634 120.502 50.8486C125.535 56.0903 128.581 62.7672 128.581 70.9389C128.581 99.6868 110.217 106.017 92.7363 107.87C95.5519 110.192 98.0608 114.747 98.0608 121.731C98.0608 131.745 97.9698 139.805 97.9698 142.271C97.9698 144.263 99.3829 146.596 103.362 145.861C134.536 135.953 157 107.907 157 74.8482C157 33.5099 121.854 0 78.5006 0Z" fill="#00C1B5"/>
</svg>
